<svg width="146" height="114" viewBox="0 0 146 114" fill="none" xmlns="http://www.w3.org/2000/svg">
<path d="M145.998 10.6757C145.995 13.623 144.814 16.2882 142.901 18.2203C140.987 20.1508 138.347 21.3433 135.427 21.3465H133.166C127.525 21.3465 122.906 26.0083 122.906 31.7015V33.9881C122.905 39.8778 118.171 44.6557 112.333 44.6589L110.068 44.6638C104.426 44.6638 99.8078 49.3224 99.8078 55.0188L99.8046 57.3037C99.8046 63.1967 95.0712 67.9746 89.2331 67.9762C83.3935 67.9762 78.6569 63.1983 78.6569 57.3037C78.6569 54.3565 79.8414 51.6896 81.7555 49.7559C83.668 47.8254 86.3117 46.6297 89.2299 46.6297H91.4937C97.1354 46.6297 101.754 41.9679 101.752 36.2699L101.757 33.9849C101.757 31.0376 102.942 28.3707 104.856 26.437C106.768 24.5065 109.412 23.3108 112.33 23.3108H114.594C120.235 23.3108 124.854 18.649 124.852 12.9542V10.6724C124.852 4.77786 129.584 0.00161142 135.424 0C141.263 0 145.998 4.77786 145.998 10.6757ZM135.424 46.3267C129.586 46.3284 124.854 51.1046 124.851 56.9992V59.281C124.852 64.9773 120.235 69.6392 114.592 69.6392H112.33C109.412 69.6392 106.768 70.8349 104.856 72.7653C102.942 74.6974 101.759 77.3643 101.759 80.31C101.759 86.2062 106.492 90.9841 112.333 90.9841C118.171 90.9825 122.906 86.203 122.906 80.3116V78.0266C122.908 72.3319 127.525 67.6716 133.168 67.6716H135.429C138.348 67.67 140.99 66.476 142.903 64.5455C144.817 62.6134 145.998 59.9481 146 57.0008C146 51.1046 141.267 46.3267 135.425 46.3267H135.424ZM135.424 92.6535C129.584 92.6535 124.851 97.4314 124.851 103.326C124.851 109.221 129.584 113.998 135.424 113.998C141.263 113.998 145.997 109.221 145.997 103.326C145.997 97.4314 141.263 92.6535 135.424 92.6535ZM0 10.6757C0.00319283 13.623 1.18454 16.2882 3.09704 18.2203C5.01114 20.1508 7.65161 21.3433 10.5715 21.3465H12.832C18.4737 21.3465 23.0921 26.0083 23.0921 31.7015V33.9881C23.0937 39.8778 27.8271 44.6557 33.6652 44.6589L35.9305 44.6638C41.5722 44.6638 46.1906 49.3224 46.1906 55.0188L46.1938 57.3037C46.1938 63.1967 50.9272 67.9746 56.7653 67.9762C62.605 67.9762 67.3415 63.1983 67.3415 57.3037C67.3415 54.3565 66.157 51.6896 64.2429 49.7559C62.3304 47.8254 59.6867 46.6297 56.7685 46.6297H54.5048C48.863 46.6297 44.2446 41.9679 44.2462 36.2699L44.2414 33.9849C44.2414 31.0376 43.0569 28.3707 41.1428 26.437C39.2303 24.5065 36.5866 23.3108 33.6684 23.3108H31.4046C25.7629 23.3108 21.1445 18.649 21.1461 12.9542V10.6724C21.1461 4.77786 16.4143 0.00161142 10.5746 0C4.73337 0 0 4.77786 0 10.6757ZM0 57.0008C0.00159641 59.9481 1.18454 62.615 3.09704 64.5455C5.01114 66.4776 7.65161 67.67 10.5715 67.6716H12.832C18.4737 67.6716 23.0921 72.3319 23.0921 78.0266V80.3116C23.0921 86.203 27.8271 90.9825 33.6652 90.9841C39.5064 90.9841 44.2398 86.2062 44.2398 80.31C44.2398 77.3643 43.0553 74.6958 41.1428 72.7653C39.2287 70.8332 36.5866 69.6392 33.6684 69.6392H31.4062C25.7629 69.6392 21.1461 64.979 21.1461 59.281V56.9992C21.1461 51.1062 16.4127 46.33 10.5746 46.3267C4.73337 46.3267 0 51.1062 0 57.0008ZM0 103.328C0 109.222 4.73337 114 10.573 114C16.4127 114 21.1461 109.222 21.1461 103.328C21.1461 97.433 16.4127 92.6551 10.573 92.6551C4.73337 92.6551 0 97.433 0 103.328Z" fill="#FF4700"/>
</svg>
