<svg width="30" height="30" viewBox="0 0 30 30" fill="none" xmlns="http://www.w3.org/2000/svg">
<rect x="8.5" y="0.5" width="5" height="5" stroke="currentColor" stroke-opacity="0.5"/>
<rect x="1" y="9" width="4" height="4" stroke="currentColor" stroke-width="2"/>
<rect x="0.5" y="16.5" width="5" height="5" stroke="currentColor" stroke-opacity="0.5"/>
<rect x="0.5" y="24.5" width="5" height="5" stroke="currentColor" stroke-opacity="0.5"/>
<rect x="1" y="1" width="4" height="4" stroke="currentColor" stroke-width="2"/>
<rect x="9" y="9" width="4" height="4" stroke="currentColor" stroke-width="2"/>
<rect x="9" y="25" width="4" height="4" stroke="currentColor" stroke-width="2"/>
<rect x="8.5" y="16.5" width="5" height="5" stroke="currentColor" stroke-opacity="0.5"/>
<rect x="16.5" y="0.5" width="5" height="5" stroke="currentColor" stroke-opacity="0.5"/>
<rect x="17" y="9" width="4" height="4" stroke="currentColor" stroke-width="2"/>
<rect x="17" y="17" width="4" height="4" stroke="currentColor" stroke-width="2"/>
<rect x="16.5" y="24.5" width="5" height="5" stroke="currentColor" stroke-opacity="0.5"/>
<rect x="24.5" y="0.5" width="5" height="5" stroke="currentColor" stroke-opacity="0.5"/>
<rect x="24.5" y="16.5" width="5" height="5" stroke="currentColor" stroke-opacity="0.5"/>
<rect x="25" y="9" width="4" height="4" stroke="currentColor" stroke-width="2"/>
<rect x="25" y="25" width="4" height="4" stroke="currentColor" stroke-width="2"/>
</svg>
